<svg xmlns="http://www.w3.org/2000/svg" viewBox="0 0 200 240" fill="none">
  <!-- Trunk -->
  <rect x="82" y="160" width="36" height="60" rx="5" fill="#8B6914"/>
  <rect x="88" y="160" width="8" height="55" rx="3" fill="#A07A1A" opacity="0.5"/>
  <!-- Branches -->
  <rect x="55" y="145" width="40" height="10" rx="4" fill="#7A5C10" transform="rotate(-20 55 145)"/>
  <rect x="120" y="150" width="35" height="9" rx="4" fill="#7A5C10" transform="rotate(15 120 150)"/>
  <!-- Canopy -->
  <circle cx="100" cy="95" r="65" fill="#4CAF50"/>
  <circle cx="65" cy="75" r="40" fill="#66BB6A"/>
  <circle cx="135" cy="80" r="35" fill="#43A047"/>
  <circle cx="100" cy="55" r="45" fill="#81C784"/>
  <circle cx="75" cy="100" r="28" fill="#388E3C"/>
  <circle cx="130" cy="105" r="25" fill="#2E7D32"/>
  <!-- Oranges -->
  <circle cx="120" cy="60" r="9" fill="#FF8C00" stroke="#E67E00" stroke-width="1.5"/>
  <circle cx="70" cy="90" r="8" fill="#FFA726" stroke="#F57C00" stroke-width="1.5"/>
  <circle cx="95" cy="115" r="9" fill="#FF8C00" stroke="#E67E00" stroke-width="1.5"/>
  <circle cx="135" cy="95" r="8" fill="#FFA726" stroke="#F57C00" stroke-width="1.5"/>
  <circle cx="80" cy="65" r="7" fill="#FFB74D" stroke="#FB8C00" stroke-width="1"/>
  <circle cx="110" cy="85" r="8" fill="#FF8C00" stroke="#E67E00" stroke-width="1.5"/>
  <circle cx="60" cy="80" r="7" fill="#FFA726" stroke="#F57C00" stroke-width="1"/>
</svg>
